<svg width="24" height="24" viewBox="0 0 24 24" fill="none" xmlns="http://www.w3.org/2000/svg">
<g clip-path="url(#clip0_446_9581)">
<path d="M4.40525 7.70562C4.62021 7.86075 4.88807 7.92437 5.14989 7.88218C5.41172 7.83999 5.6461 7.69557 5.80121 7.48061C6.65614 6.30357 7.83181 5.39755 9.18789 4.87098C9.70732 5.76967 10.6248 6.36563 11.6569 6.475C12.689 6.58415 13.7112 6.19352 14.4072 5.42367C15.1032 4.65377 15.3891 3.59753 15.1766 2.58169C14.9639 1.56584 14.2786 0.712686 13.3324 0.286566C12.3862 -0.139777 11.2931 -0.0879938 10.3913 0.425854C9.48972 0.939701 8.88789 1.85353 8.77251 2.88503C6.92871 3.53258 5.32669 4.72723 4.17982 6.30965C4.02469 6.52461 3.96129 6.79247 4.00348 7.05429C4.04589 7.31612 4.19029 7.55028 4.40525 7.70562ZM12.0002 1.99993C12.3317 1.99993 12.6498 2.13163 12.8842 2.36601C13.1186 2.60038 13.2502 2.91847 13.2502 3.24996C13.2502 3.58145 13.1185 3.89952 12.8842 4.13392C12.6498 4.36832 12.3317 4.49999 12.0002 4.49999C11.6687 4.49999 11.3507 4.36829 11.1163 4.13392C10.8819 3.89954 10.7502 3.58145 10.7502 3.24996C10.7502 2.91847 10.8819 2.60041 11.1163 2.36601C11.3506 2.1316 11.6687 1.99993 12.0002 1.99993Z" fill="#B0B0B0"/>
<path d="M19.5966 16.2947C19.3819 16.1391 19.114 16.0752 18.8522 16.117C18.5902 16.1589 18.3558 16.3031 18.2002 16.5181C17.3446 17.6949 16.1709 18.6027 14.8171 19.1351C14.2995 18.2346 13.3821 17.6362 12.3495 17.5253C11.3166 17.4141 10.2932 17.8041 9.59581 18.574C8.89872 19.3439 8.61208 20.401 8.8246 21.4178C9.03733 22.4345 9.72347 23.2881 10.6709 23.714C11.6182 24.1402 12.7122 24.0872 13.6138 23.5716C14.5155 23.056 15.1162 22.1401 15.2296 21.1078C17.0705 20.4595 18.6712 19.2682 19.8208 17.6912C19.9761 17.4762 20.04 17.2084 19.998 16.9465C19.956 16.6847 19.8116 16.4501 19.5967 16.2948L19.5966 16.2947ZM12.0005 21.9997C11.6691 21.9997 11.351 21.868 11.1166 21.6336C10.8822 21.3992 10.7505 21.0811 10.7505 20.7496C10.7505 20.4181 10.8822 20.1001 11.1166 19.8657C11.351 19.6313 11.669 19.4996 12.0005 19.4996C12.332 19.4996 12.6501 19.6313 12.8845 19.8657C13.1189 20.1 13.2506 20.4181 13.2506 20.7496C13.2506 21.0811 13.1189 21.3992 12.8845 21.6336C12.6501 21.868 12.332 21.9997 12.0005 21.9997Z" fill="#B0B0B0"/>
<path d="M7.48061 18.1999C6.30334 17.3452 5.39755 16.1695 4.87098 14.8132C5.76967 14.294 6.36562 13.3763 6.475 12.3442C6.58415 11.3122 6.19352 10.2901 5.42367 9.59413C4.65377 8.89812 3.59753 8.61218 2.58168 8.8247C1.56584 9.0372 0.712686 9.72271 0.286566 10.6689C-0.139777 11.6151 -0.0879938 12.708 0.425854 13.6098C0.939701 14.5116 1.85353 15.1132 2.88503 15.2288C3.53258 17.0724 4.72723 18.6746 6.30965 19.8213C6.59917 20.0304 6.9784 20.0692 7.30452 19.923C7.63042 19.7768 7.85364 19.4677 7.89002 19.1123C7.92618 18.7567 7.77015 18.4089 7.48064 18.1998L7.48061 18.1999ZM1.99996 11.9998C1.99996 11.6683 2.13166 11.3502 2.36604 11.1158C2.60041 10.8814 2.9185 10.7497 3.24999 10.7497C3.58148 10.7497 3.89954 10.8814 4.13395 11.1158C4.36835 11.3502 4.50002 11.6683 4.50002 11.9998C4.50002 12.3313 4.36832 12.6493 4.13395 12.8837C3.89957 13.1181 3.58148 13.2498 3.24999 13.2498C2.9185 13.2498 2.60044 13.1181 2.36604 12.8837C2.13163 12.6494 1.99996 12.3313 1.99996 11.9998Z" fill="#B0B0B0"/>
<path d="M21.1153 8.77196C20.4678 6.92816 19.2731 5.32613 17.6907 4.17926C17.401 3.98127 17.0284 3.94957 16.7094 4.096C16.3905 4.24243 16.1715 4.54534 16.1326 4.89424C16.0938 5.24313 16.2407 5.58688 16.5197 5.79985C17.6965 6.65478 18.603 7.83 19.1309 9.18539C18.2318 9.70415 17.6351 10.6216 17.5252 11.6537C17.4154 12.6858 17.8058 13.7082 18.5755 14.4047C19.3451 15.1011 20.4014 15.3875 21.4175 15.1752C22.4333 14.9629 23.2867 14.2776 23.7133 13.3314C24.1398 12.3852 24.0883 11.292 23.5746 10.3903C23.0608 9.48825 22.1467 8.88647 21.1152 8.77081L21.1153 8.77196ZM20.7504 13.2499C20.4189 13.2499 20.1008 13.1182 19.8664 12.8838C19.632 12.6495 19.5003 12.3314 19.5003 11.9999C19.5003 11.6684 19.632 11.3503 19.8664 11.1159C20.1008 10.8815 20.4189 10.7498 20.7504 10.7498C21.0819 10.7498 21.3999 10.8815 21.6343 11.1159C21.8687 11.3503 22.0004 11.6684 22.0004 11.9999C22.0004 12.3314 21.8687 12.6494 21.6343 12.8838C21.3999 13.1182 21.0819 13.2499 20.7504 13.2499Z" fill="#B0B0B0"/>
<path d="M12.2085 13.5716L10.923 13.5656H10.9186C10.5612 13.5649 10.2306 13.7546 10.0514 14.0638C9.87212 14.3727 9.87123 14.754 10.0491 15.0638C10.227 15.3736 10.5567 15.5649 10.9141 15.5656H10.9927H10.9925C11.009 15.8172 11.1197 16.0531 11.3027 16.2263C11.4855 16.3995 11.7271 16.4973 11.9791 16.5002H11.984C12.2485 16.5002 12.5021 16.3955 12.6894 16.2091C12.8769 16.0225 12.9827 15.7696 12.984 15.5051V15.4281C13.6631 15.1845 14.187 14.6341 14.3966 13.9437C14.6062 13.2535 14.4767 12.5045 14.0477 11.9247C13.6186 11.3445 12.9405 11.0017 12.2191 11.0001H11.7905C11.7153 10.9998 11.6432 10.969 11.5905 10.915C11.5371 10.8623 11.5075 10.7902 11.5081 10.715C11.509 10.5579 11.6363 10.4306 11.7936 10.43L13.0791 10.4356H13.0836C13.441 10.4364 13.7715 10.2465 13.9508 9.93756C14.13 9.6284 14.1309 9.24737 13.953 8.93754C13.7751 8.62771 13.4454 8.43642 13.088 8.43552H13.0095H13.0097C12.9941 8.18328 12.8834 7.94645 12.6999 7.77277C12.5164 7.5991 12.2738 7.50156 12.0211 7.5H12.0162C11.7516 7.5 11.4981 7.60469 11.3108 7.79108C11.1233 7.97769 11.0175 8.23059 11.0161 8.49509V8.5721C10.3362 8.81496 9.81142 9.36566 9.60159 10.0563C9.39154 10.7472 9.52101 11.4965 9.9507 12.0768C10.3804 12.657 11.0596 12.9994 11.7815 13.0001H12.2106C12.3637 13.0065 12.4847 13.1324 12.4847 13.2858C12.4847 13.4391 12.3637 13.5652 12.2106 13.5715L12.2085 13.5716Z" fill="#B0B0B0"/>
</g>
<defs>
<clipPath id="clip0_446_9581">
<rect width="24" height="24" fill="white"/>
</clipPath>
</defs>
</svg>
