<svg width="60" height="60" viewBox="0 0 60 60" fill="none" xmlns="http://www.w3.org/2000/svg">
<rect width="60" height="60" rx="30" fill="#F00075"/>
<path fill-rule="evenodd" clip-rule="evenodd" d="M30.0001 34.9998C32.7615 34.9998 35.0001 32.7613 35.0001 29.9998C35.0001 27.2384 32.7615 24.9998 30.0001 24.9998C27.2387 24.9998 25.0001 27.2384 25.0001 29.9998C25.0001 32.7613 27.2387 34.9998 30.0001 34.9998ZM30.0001 38.3332C34.6025 38.3332 38.3334 34.6022 38.3334 29.9998C38.3334 25.3975 34.6025 21.6665 30.0001 21.6665C25.3977 21.6665 21.6667 25.3975 21.6667 29.9998C21.6667 34.6022 25.3977 38.3332 30.0001 38.3332Z" fill="white"/>
<path d="M40.0001 21.6667C40.0001 22.5871 39.2539 23.3333 38.3334 23.3333C37.4129 23.3333 36.6667 22.5871 36.6667 21.6667C36.6667 20.7462 37.4129 20 38.3334 20C39.2539 20 40.0001 20.7462 40.0001 21.6667Z" fill="white"/>
<path fill-rule="evenodd" clip-rule="evenodd" d="M36.6666 16.6668H23.3333C19.6514 16.6668 16.6666 19.6516 16.6666 23.3335V36.6668C16.6666 40.3487 19.6514 43.3335 23.3333 43.3335H36.6666C40.3485 43.3335 43.3333 40.3487 43.3333 36.6668V23.3335C43.3333 19.6516 40.3485 16.6668 36.6666 16.6668ZM23.3333 13.3335C17.8104 13.3335 13.3333 17.8106 13.3333 23.3335V36.6668C13.3333 42.1897 17.8104 46.6668 23.3333 46.6668H36.6666C42.1894 46.6668 46.6666 42.1897 46.6666 36.6668V23.3335C46.6666 17.8106 42.1894 13.3335 36.6666 13.3335H23.3333Z" fill="white"/>
</svg>
