<svg width="60" height="60" viewBox="0 0 60 60" fill="none" xmlns="http://www.w3.org/2000/svg">
<rect width="60" height="60" rx="30" fill="#FF0000"/>
<path fill-rule="evenodd" clip-rule="evenodd" d="M30.5323 13.4008C34.9675 13.1966 39.5311 14.7778 42.149 18.1436C48.8128 26.7113 42.3678 38.3335 33.3334 38.3335C31.1879 38.3335 29.5024 37.8623 28.2211 37.0157C27.7286 36.6903 27.3154 36.3223 26.97 35.9302L24.0284 45.4904C23.7577 46.3701 22.825 46.8639 21.9453 46.5932C21.0655 46.3225 20.5717 45.3898 20.8424 44.5101L27.5091 22.8434C27.7798 21.9637 28.7125 21.4699 29.5922 21.7406C30.472 22.0113 30.9658 22.9439 30.6951 23.8237L28.6765 30.3841C28.6727 30.4101 28.6683 30.4429 28.6637 30.4821C28.648 30.6146 28.6307 30.8143 28.6284 31.0573C28.6238 31.5553 28.6832 32.1709 28.8995 32.7533C29.1082 33.3153 29.4573 33.8373 30.0587 34.2346C30.6691 34.638 31.6723 35.0001 33.3334 35.0002C39.5257 35.0002 44.5207 26.6224 39.5178 20.1901C37.7346 17.8974 34.3492 16.5619 30.6856 16.7306C27.0625 16.8975 23.475 18.5287 21.3221 21.7581C19.9222 23.8579 19.7947 25.8624 20.2043 27.3778C20.6419 28.9964 21.6157 29.8857 22.2218 30.079C23.0987 30.3587 23.583 31.2963 23.3033 32.1733C23.0237 33.0502 22.086 33.5344 21.2091 33.2548C19.2019 32.6147 17.619 30.5874 16.9865 28.2477C16.3261 25.8047 16.6152 22.8092 18.5486 19.9091C21.3957 15.6383 26.0567 13.6069 30.5323 13.4008Z" fill="white"/>
</svg>
