<svg width="18" height="18" viewBox="0 0 18 18" fill="none" xmlns="http://www.w3.org/2000/svg">
<path d="M18 3.725C17.325 4.025 16.65 4.25 15.9 4.325C16.65 3.875 17.25 3.125 17.55 2.3C16.8 2.75 16.05 3.05 15.225 3.2C14.55 2.45 13.575 2 12.525 2C10.5 2 8.85 3.65 8.85 5.675C8.85 5.975 8.85 6.275 8.925 6.5C5.775 6.35 3.075 4.85 1.275 2.6C0.9 3.2 0.75 3.8 0.75 4.475C0.75 5.75 1.425 6.875 2.4 7.55C1.8 7.55 1.2 7.4 0.75 7.1C0.75 7.1 0.75 7.1 0.75 7.175C0.75 8.975 2.025 10.475 3.675 10.775C3.375 10.85 3.075 10.925 2.7 10.925C2.475 10.925 2.25 10.925 2.025 10.85C2.475 12.35 3.825 13.4 5.475 13.4C4.2 14.375 2.625 14.975 0.9 14.975C0.6 14.975 0.3 14.975 0 14.9C1.65 15.95 3.6 16.55 5.625 16.55C12.45 16.55 16.125 10.925 16.125 6.05C16.125 5.9 16.125 5.75 16.125 5.6C16.875 5.075 17.475 4.4 18 3.725Z" fill="#1DA1F2"/>
</svg>
