<svg width="60" height="60" viewBox="0 0 60 60" fill="none" xmlns="http://www.w3.org/2000/svg">
<rect width="60" height="60" rx="30" fill="#FF0000"/>
<path fill-rule="evenodd" clip-rule="evenodd" d="M18.7982 19.5779C16.5512 19.8275 14.7435 21.5393 14.3719 23.7694C13.6843 27.8946 13.6843 32.1052 14.3719 36.2304C14.7435 38.4604 16.5512 40.1722 18.7982 40.4219L19.682 40.5201C26.5396 41.2821 33.4606 41.2821 40.3182 40.5201L41.202 40.4219C43.449 40.1722 45.2567 38.4604 45.6283 36.2304C46.3159 32.1052 46.3159 27.8946 45.6283 23.7694C45.2567 21.5393 43.449 19.8275 41.202 19.5779L40.3182 19.4797C33.4606 18.7177 26.5396 18.7177 19.682 19.4797L18.7982 19.5779ZM34.5865 31.3866C35.5761 30.7269 35.5761 29.2728 34.5865 28.6131L29.2578 25.0607C28.1502 24.3223 26.6667 25.1163 26.6667 26.4474V33.5524C26.6667 34.8835 28.1502 35.6775 29.2578 34.9391L34.5865 31.3866Z" fill="white"/>
</svg>
